<svg width="41" height="41" viewBox="0 0 41 41" fill="none" xmlns="http://www.w3.org/2000/svg">
<path d="M30.2244 23.8691C29.5084 23.3087 28.4998 23.4069 27.8317 24.0236L21.9558 29.4477C21.1897 30.1549 20.0088 30.1549 19.2426 29.4477L13.3667 24.0236C12.6986 23.4069 11.6901 23.3087 10.974 23.8691C7.49651 26.5905 5.09048 30.7413 4.55971 35.5034C4.43736 36.6012 5.34465 37.4999 6.44922 37.4999H34.7492C35.8538 37.4999 36.7611 36.6012 36.6387 35.5034C36.108 30.7413 33.7019 26.5905 30.2244 23.8691Z" fill="black"/>
<path d="M20.5994 23.8999C23.6169 23.8999 26.3191 22.5824 28.1865 20.4999C29.8058 18.6945 30.7994 16.3162 30.7994 13.6999C30.7994 8.06693 26.2324 3.49988 20.5994 3.49988C14.9665 3.49988 10.3994 8.06693 10.3994 13.6999C10.3994 16.3162 11.3931 18.6945 13.0123 20.4999C14.8798 22.5824 17.5819 23.8999 20.5994 23.8999Z" fill="black"/>
</svg>
