<svg width="42" height="41" viewBox="0 0 42 41" fill="none" xmlns="http://www.w3.org/2000/svg">
<path d="M7.63609 8.73076C7.71157 8.79525 7.76804 8.8791 7.79944 8.97329L12.783 23.9257C12.9408 24.399 12.9159 24.9142 12.7133 25.3702L10.0839 31.2877C9.49624 32.6103 10.4644 34.0998 11.9116 34.0998H17.3998H27.5998H32.6998C33.6387 34.0998 34.3998 33.3387 34.3998 32.3998C34.3998 31.4609 33.6387 30.6998 32.6998 30.6998H17.1435C15.6962 30.6998 14.7281 29.2102 15.3159 27.8876L15.427 27.6376C15.7479 26.9153 16.4642 26.4498 17.2546 26.4498H31.6332C32.494 26.4498 33.2583 25.899 33.5305 25.0823L37.581 12.9323C38.0127 11.6373 37.0488 10.2998 35.6836 10.2998H13.2662C12.4053 10.2998 11.641 9.74897 11.3688 8.93228L10.5805 6.56737C10.3083 5.75069 9.544 5.19983 8.68314 5.19983H5.49981C4.56092 5.19983 3.7998 5.96094 3.7998 6.89983C3.7998 7.83871 4.56092 8.59983 5.4998 8.59983H7.28131C7.41138 8.59983 7.53719 8.64626 7.63609 8.73076Z" fill="black"/>
<path d="M17.3992 37.4999C18.3381 37.4999 19.0992 36.7387 19.0992 35.7999C19.0992 34.861 18.3381 34.0999 17.3992 34.0999C16.4603 34.0999 15.6992 34.861 15.6992 35.7999C15.6992 36.7387 16.4603 37.4999 17.3992 37.4999Z" fill="black"/>
<path d="M27.5994 37.4999C28.5383 37.4999 29.2994 36.7387 29.2994 35.7999C29.2994 34.861 28.5383 34.0999 27.5994 34.0999C26.6605 34.0999 25.8994 34.861 25.8994 35.7999C25.8994 36.7387 26.6605 37.4999 27.5994 37.4999Z" fill="black"/>
</svg>
