<svg width="42" height="41" viewBox="0 0 42 41" fill="none" xmlns="http://www.w3.org/2000/svg">
<path d="M16.2589 28.0176C18.3912 28.0176 20.3912 27.4666 22.1355 26.506C23.0068 26.0262 24.1128 26.089 24.8162 26.7924L34.2843 36.2612C34.9683 36.9453 36.0774 36.9453 36.7614 36.2613C37.4455 35.5773 37.4454 34.4682 36.7614 33.7842L27.2926 24.3161C26.5891 23.6127 26.5263 22.5067 27.0062 21.6353C27.9667 19.8911 28.5178 17.8911 28.5178 15.7588C28.5178 8.98835 23.0293 3.49988 16.2589 3.49988C9.48848 3.49988 4 8.98835 4 15.7588C4 22.5292 9.48848 28.0176 16.2589 28.0176ZM16.2589 7.00241C21.0871 7.00241 25.0152 10.9305 25.0152 15.7588C25.0152 20.587 21.0871 24.5151 16.2589 24.5151C11.4306 24.5151 7.50254 20.587 7.50254 15.7588C7.50254 10.9305 11.4306 7.00241 16.2589 7.00241Z" fill="black"/>
</svg>
